<svg width="200" height="200" viewBox="0 0 200 200" fill="none" xmlns="http://www.w3.org/2000/svg">
<path d="M55.9261 147.244C52.9749 142.19 50.284 136.464 47.9261 129.987C47.9261 129.987 44.348 135.348 43.0742 140.5C41.9615 145 43.822 148.216 43.5741 151C43.2475 154.668 40.5209 156.447 41.0737 157C41.6456 157.572 45.8032 156.881 47.9261 154.5C49.543 152.686 48.5742 150.5 51.0742 148.5C53.0841 146.892 55.9261 147.244 55.9261 147.244Z" fill="#096DD3" stroke="#4A9BB8" stroke-width="0.3"/>
<path d="M47.9268 130.065C50.2846 136.542 52.9756 142.268 55.9268 147.323C81.0747 190.396 125.115 184.766 142.927 180.34C147.819 179.125 150.732 178 150.732 178C150.732 178 142.596 177.782 139.232 170C135.984 162.484 137.62 155.032 140.679 147.5C140.679 147.5 143.772 146.978 146.074 148C149.589 149.561 148.06 152.939 151.574 154.5C154.113 155.627 157.074 155.5 158.074 155C159.074 154.5 156.221 154.101 154.574 150C152.77 145.509 155.378 141.991 153.574 137.5C152.476 134.766 148.074 132 148.074 132C149.978 126.774 152.88 116.455 152.232 111C150.117 93.169 144.85 88.2437 140.049 83.7532C138.788 82.5737 137.559 81.4241 136.427 80.0782C134.74 78.0715 133.269 75.6285 132.232 72C131.289 68.6964 131.075 65.8777 130.868 63.1368C130.61 59.7312 130.362 56.4459 128.732 52.5C126.417 46.8935 120.233 41.5 120.233 41.5C120.233 41.5 122.421 51.6474 120.233 57.5C118.193 62.9563 110.733 69 110.733 69C110.733 69 111.952 58.8272 110.733 52.5C110.061 49.0131 108.343 46.5485 106.67 44.149C104.719 41.3504 102.829 38.6403 102.733 34.5C102.528 25.6788 112.233 14 112.233 14C112.233 14 87.7324 20.5 84.2324 36C82.9875 41.5131 83.3873 46.8997 83.7442 51.7098C84.3909 60.4232 84.8971 67.2449 75.2324 69.5C72.5881 70.117 72.9355 66.0377 73.3138 61.5946C73.5663 58.629 73.8326 55.5014 73.2324 53.5C71.6187 49.8122 67.2329 46.5 67.2329 46.5C67.2329 46.5 69.0919 53.6273 67.2329 57.5C65.8075 60.4694 63.4566 63.5235 60.7928 66.984C52.2435 78.0905 40.4717 93.3834 45.7329 123.5C46.4272 125.77 47.1594 127.957 47.9268 130.065Z" fill="url(#paint0_linear_41_75)"/>
<path d="M56.0742 147.323C53.1231 142.268 50.4321 136.542 48.0742 130.065C47.3068 127.957 46.5747 125.77 45.8804 123.5C38.9799 84 61.3799 70 67.3804 57.5C69.2394 53.6273 67.3804 46.5 67.3804 46.5C67.3804 46.5 71.7662 49.8122 73.3799 53.5C74.8794 58.5 70.9706 70.5288 75.3799 69.5C90.3799 66 80.8799 51.5 84.3799 36C87.8799 20.5 112.38 14 112.38 14C112.38 14 102.676 25.6788 102.88 34.5C103.059 42.1904 109.425 44.9465 110.88 52.5C112.1 58.8272 110.88 69 110.88 69C110.88 69 118.34 62.9563 120.38 57.5C122.569 51.6474 120.38 41.5 120.38 41.5C120.38 41.5 126.565 46.8935 128.88 52.5C131.821 59.6215 130.264 64.5915 132.38 72C133.416 75.6285 134.887 78.0715 136.574 80.0782C136.574 80.0782 145.171 95.8876 146.074 107C146.359 110.503 145.545 113.369 144.758 116.142C143.787 119.561 141.855 124.84 143.074 129C143.985 132.107 144.605 133.937 146.574 136.5C147.752 138.033 149.016 138.383 150.074 140C152.237 143.304 150.044 146.359 151.574 150C152.456 152.099 155.074 155 155.074 155C155.074 155 153.574 155.5 151.074 154C148.891 152.69 148.79 149.255 146.574 148C144.614 146.89 142.905 147.312 140.574 147C138.41 146.71 135.074 146.5 135.074 146.5C135.074 146.5 130.522 151.716 130.574 158.615C130.649 168.403 143.074 180.34 143.074 180.34C125.263 184.766 81.2222 190.396 56.0742 147.323Z" fill="url(#paint1_linear_41_75)"/>
<path d="M103.977 169.4C97.6765 165.86 89.4775 157.9 89.4775 157.9L91.9775 164.4L96.9775 171.4C96.9775 171.4 77.0839 163.941 63.4775 146.695C58.1688 139.966 53.8171 131.747 51.9775 121.9C46.5597 92.8999 67.2835 70.3999 67.2835 70.3999C67.2835 70.3999 66.3007 76.3228 69.4775 79.3999C73.9775 83.7586 82.7795 76.9641 87.4775 70.3999C95.4775 59.222 88.9775 54.3999 89.9775 42.8999C90.4395 37.5868 95.4775 30.3999 95.4775 30.3999C95.4775 30.3999 96.0191 37.1716 96.9775 41.3999C97.4057 43.2891 98.0668 44.9133 98.8294 46.3999C101.307 51.23 104.858 54.607 104.977 60.8999C105.131 68.9895 100.477 78.8999 100.477 78.8999C100.477 78.8999 107.85 80.8962 112.977 77.8999C119.572 74.0463 123.477 61.3999 123.477 61.3999C123.477 61.3999 125.534 65.8896 126.477 68.8999C127.961 73.6368 126.422 77.0336 128.783 81.3999C130.519 84.6108 133.188 85.2181 134.977 88.3999C138.53 94.7178 129.35 105.58 136.477 106.9C137.821 107.149 139.977 106.9 139.977 106.9C139.977 106.9 139.644 116.13 138.477 121.9C135.553 136.366 121.477 148.4 122.477 154.4C123.477 160.4 124.977 161.6 124.977 162.4C124.977 163.2 119.644 161.067 116.977 159.9C114.311 158.733 109.477 154.9 109.477 154.9C109.477 154.9 111.845 163.084 114.977 167.4C118.064 171.652 124.977 176.4 124.977 176.4C124.977 176.4 111.514 173.634 103.977 169.4Z" fill="url(#paint2_linear_41_75)"/>
<path d="M103.914 169.5C97.6133 165.96 89.4143 158 89.4143 158L91.9143 164.5L96.9143 171.5C96.9143 171.5 77.0207 164.041 63.4143 146.795C63.4143 146.795 60.2386 137.289 59.0618 131C57.9064 124.826 57.4143 115 57.4143 115C56.5656 101.68 69.4143 83 69.4143 83C69.4143 83 75.9143 86.5 83.4143 83C90.9143 79.5 95.0797 73.2308 97.9143 64.5C100.087 57.8066 98.7662 46.5 98.7662 46.5C101.244 51.3301 104.794 54.7071 104.914 61C105.068 69.0896 100.414 79 100.414 79C100.414 79 107.787 80.9963 112.914 78C119.509 74.1464 123.414 61.5 123.414 61.5C123.414 61.5 125.471 65.9897 126.414 69C127.898 73.7369 126.359 77.1337 128.72 81.5C130.456 84.7109 133.125 85.3182 134.914 88.5C138.467 94.818 129.287 105.681 136.414 107C137.758 107.249 139.914 107 139.914 107C139.914 107 139.581 116.23 138.414 122C135.49 136.466 121.414 148.5 122.414 154.5C123.414 160.5 124.914 161.7 124.914 162.5C124.914 163.3 119.581 161.167 116.914 160C114.248 158.833 109.414 155 109.414 155C109.414 155 111.782 163.184 114.914 167.5C118.001 171.752 124.914 176.5 124.914 176.5C124.914 176.5 111.451 173.734 103.914 169.5Z" fill="url(#paint3_linear_41_75)"/>
<path fill-rule="evenodd" clip-rule="evenodd" d="M122.622 114.401C122.735 108.499 120.02 102.165 114.122 101.901C108.151 101.634 104.74 107.926 104.622 113.901C104.501 120.032 108.002 126.777 114.122 126.401C119.854 126.049 122.512 120.143 122.622 114.401ZM81.6223 113.901C81.6223 107.886 78.6363 101.519 72.6223 101.401C66.2872 101.278 63.1409 108.584 63.6223 114.901C64.0555 120.588 66.9201 126.313 72.6223 126.401C78.6367 126.495 81.6223 119.917 81.6223 113.901Z" fill="url(#paint4_linear_41_75)" stroke="url(#paint5_linear_41_75)" stroke-width="0.3"/>
<defs>
<linearGradient id="paint0_linear_41_75" x1="79.5742" y1="56.5" x2="123.574" y2="169" gradientUnits="userSpaceOnUse">
<stop stop-color="#00B5F6"/>
<stop offset="1" stop-color="#005BC8"/>
</linearGradient>
<linearGradient id="paint1_linear_41_75" x1="75.5742" y1="63" x2="122.074" y2="165" gradientUnits="userSpaceOnUse">
<stop stop-color="#00B3F6"/>
<stop offset="0.802885" stop-color="#007DF0" stop-opacity="0.62"/>
<stop offset="1" stop-color="#007DF0" stop-opacity="0.2"/>
</linearGradient>
<linearGradient id="paint2_linear_41_75" x1="73.5742" y1="70" x2="107.074" y2="165.5" gradientUnits="userSpaceOnUse">
<stop stop-color="#00C8FA" stop-opacity="0.9"/>
<stop offset="1" stop-color="#0071F6" stop-opacity="0.3"/>
</linearGradient>
<linearGradient id="paint3_linear_41_75" x1="77.5742" y1="70" x2="115.074" y2="165.5" gradientUnits="userSpaceOnUse">
<stop stop-color="#00CCFB"/>
<stop offset="1" stop-color="#0075F8" stop-opacity="0.7"/>
</linearGradient>
<linearGradient id="paint4_linear_41_75" x1="93.5742" y1="132" x2="96.5742" y2="98" gradientUnits="userSpaceOnUse">
<stop stop-color="#002349"/>
<stop offset="1" stop-color="#002551"/>
</linearGradient>
<linearGradient id="paint5_linear_41_75" x1="93.0999" y1="126.416" x2="93.0999" y2="101.4" gradientUnits="userSpaceOnUse">
<stop stop-color="#00BEFF"/>
<stop offset="1" stop-color="#00D6FF"/>
</linearGradient>
</defs>
</svg>
